<svg xmlns="http://www.w3.org/2000/svg" viewBox="0 0 880 880">
  <!-- Archivo Black "c", periwinkle on transparent -->
  <g transform="translate(110,704.5) scale(1,-1)" fill="#8e82fb">
    <path d="M333 -12Q243 -12 176.5 18.5Q110 49 73.0 110.5Q36 172 36 264Q36 357 73.0 418.5Q110 480 176.5 510.5Q243 541 333 541Q414 541 480.0 518.0Q546 495 585.0 445.5Q624 396 624 315H431Q431 362 405.5 383.5Q380 405 333 405Q281 405 258.0 375.0Q235 345 235 292V235Q235 183 258.5 153.0Q282 123 337 123Q386 123 412.5 144.5Q439 166 439 215H624Q624 135 585.0 84.5Q546 34 480.0 11.0Q414 -12 333 -12Z"/>
  </g>
</svg>
