<svg xmlns="http://www.w3.org/2000/svg" viewBox="0 0 880 880">
  <!-- Archivo Black "b", brand blue on transparent -->
  <g transform="translate(94,796.5) scale(1,-1)" fill="#2f27ff">
    <path d="M408 -12Q357 -12 313.5 9.0Q270 30 244 75H237L223 0H61V725H260V479H267Q290 509 327.5 524.5Q365 540 408 540Q513 540 572.0 471.5Q631 403 631 265Q631 126 572.0 57.0Q513 -12 408 -12ZM346 135Q393 135 412.5 163.0Q432 191 432 237V290Q432 337 412.5 365.0Q393 393 346 393Q300 393 279.0 360.0Q258 327 258 280V247Q258 201 279.0 168.0Q300 135 346 135Z"/>
  </g>
</svg>
